<?xml version="1.0" encoding="UTF-8"?>
<svg id="Layer_1" xmlns="http://www.w3.org/2000/svg" viewBox="0 0 677 398">
  <defs>
    <style>
      .cls-1 {
        fill: #ec008c;
      }

      .cls-2 {
        isolation: isolate;
      }

      .cls-3 {
        fill: #ed1c24;
      }

      .cls-4 {
        fill: #00aeef;
      }

      .cls-5 {
        mix-blend-mode: multiply;
      }

      .cls-6 {
        fill: #2e3192;
      }

      .cls-7 {
        fill: #fff200;
      }
    </style>
  </defs>
  <g class="cls-2">
    <g id="DL_x5F_HorizontalStacked_x5F_Logo_x5F_Black_x5F_RGB">
      <g>
        <path d="M294.2,245.1l-7.6,13.2,40.1,23.2,7.6-13.2-40.1-23.2h0Z"/>
        <path d="M350.9,191h-46.3v15.2h46.3v-15.2Z"/>
        <path d="M326.7,115.9l-40.1,23.2,7.6,13.2,40.1-23.2s-7.6-13.2-7.6-13.2Z"/>
        <path d="M268.2,63l-23.2,40.1,13.2,7.6,23.2-40.1-13.2-7.6Z"/>
        <path d="M206.3,46.3h-15.2v46.3h15.2v-46.3Z"/>
        <path d="M129.1,63l-13.2,7.6,23.2,40.1,13.2-7.6-23.2-40.1Z"/>
        <path d="M70.5,115.9l-7.6,13.2,40.1,23.2,7.6-13.2s-40.1-23.2-40.1-23.2Z"/>
        <path d="M92.7,191h-46.3v15.2h46.3v-15.2Z"/>
        <path d="M103.1,245l-40.1,23.2,7.6,13.2,40.1-23.2-7.6-13.2h0Z"/>
        <path d="M139.1,286.6l-23.2,40.1,13.2,7.6,23.2-40.1-13.2-7.6Z"/>
        <path d="M206.3,304.6h-15.2v46.3h15.2v-46.3Z"/>
        <g class="cls-5">
          <path class="cls-7" d="M290.7,335.8l-23.2-40.1-2.3,1.3,20.6,35.7-10.9,6.3,2.6,4.4,13.2-7.6h0Z"/>
        </g>
        <g class="cls-5">
          <path class="cls-1" d="M262.7,292.6l-2.3,1.3,2.5,4.4,2.3-1.3-2.5-4.4Z"/>
        </g>
        <g class="cls-5">
          <path class="cls-1" d="M272.4,334.6l-2.3,1.3,2.5,4.4,2.3-1.3-2.5-4.4Z"/>
        </g>
        <g class="cls-5">
          <path class="cls-4" d="M260.4,293.9l-2.5-4.4-13.2,7.6,23.2,40.1,2.3-1.3-20.6-35.7,10.9-6.3h-.1Z"/>
        </g>
        <g class="cls-5">
          <path d="M263,298.3l-8.6,5,18.1,31.3,8.6-5-18.1-31.3Z"/>
        </g>
        <path class="cls-3" d="M265.3,297l-2.3,1.3,18.1,31.3-8.6,4.9,2.6,4.4,10.9-6.3-20.6-35.7-.1.1Z"/>
        <path class="cls-6" d="M254.3,303.3l8.6-5-2.6-4.4-10.9,6.3,20.6,35.7,2.3-1.3-18.1-31.3h.1Z"/>
        <path d="M428.1,137.5c3.1,0,6.1.5,8.8,1.5,2.7,1,5.1,2.5,7,4.5,2,2,3.5,4.5,4.6,7.5s1.7,6.5,1.7,10.6-.4,6.8-1.4,9.8c-.9,3-2.3,5.6-4.1,7.8s-4.1,3.9-6.9,5.2-6,1.9-9.7,1.9h-21v-48.8h21.1-.1ZM427.4,177.3c1.5,0,3.1-.3,4.5-.8,1.5-.5,2.8-1.3,3.9-2.5s2.1-2.7,2.7-4.5c.7-1.9,1-4.1,1-6.8s-.2-4.7-.7-6.7-1.3-3.7-2.4-5.1c-1.1-1.4-2.5-2.5-4.3-3.2-1.8-.8-4-1.1-6.7-1.1h-7.7v30.7h9.7Z"/>
        <path d="M467.1,177.9c1.5,1.4,3.5,2.1,6.3,2.1s3.6-.5,5.1-1.5c1.4-1,2.3-2,2.6-3.1h8.5c-1.4,4.2-3.5,7.3-6.3,9.1s-6.2,2.7-10.2,2.7-5.3-.4-7.5-1.3c-2.2-.9-4.1-2.2-5.7-3.8s-2.7-3.6-3.6-5.9c-.9-2.3-1.3-4.8-1.3-7.5s.4-5.1,1.3-7.4c.9-2.3,2.1-4.3,3.7-5.9,1.6-1.7,3.5-3,5.7-3.9s4.7-1.4,7.4-1.4,5.6.6,7.9,1.8c2.2,1.2,4.1,2.7,5.5,4.7s2.5,4.2,3.1,6.7.9,5.1.7,7.9h-25.5c.1,3.1.9,5.4,2.4,6.8h0l-.1-.1ZM478.1,159.3c-1.2-1.3-2.9-1.9-5.3-1.9s-2.8.3-3.9.8c-1,.5-1.8,1.2-2.5,1.9-.6.8-1,1.6-1.3,2.5s-.4,1.6-.4,2.3h15.8c-.4-2.5-1.3-4.3-2.4-5.6h0Z"/>
        <path d="M505.3,151v4.9h.2c1.2-2.1,2.8-3.5,4.8-4.5,2-.9,4-1.4,6-1.4s4.7.4,6.4,1.1c1.7.7,3,1.7,3.9,2.9.9,1.3,1.6,2.8,2,4.6s.6,3.8.6,6v21.7h-9.7v-20c0-2.9-.4-5.1-1.4-6.5-.9-1.4-2.5-2.2-4.8-2.2s-4.6.8-5.7,2.4c-1.2,1.6-1.8,4.2-1.8,7.8v18.5h-9.7v-35.3h9.2Z"/>
        <path d="M556.1,151v6.5h-7.1v17.5c0,1.6.3,2.7.8,3.3.5.5,1.6.8,3.3.8s1.1,0,1.6,0,1-.1,1.4-.2v7.5c-.8.1-1.7.2-2.7.3h-2.9c-1.5,0-2.9,0-4.3-.3-1.3-.2-2.5-.6-3.5-1.2-1-.6-1.8-1.4-2.4-2.5-.6-1.1-.9-2.5-.9-4.3v-20.8h-5.9v-6.5h5.9v-10.6h9.7v10.6h7.1l-.1-.1Z"/>
        <path d="M570.1,177.6c.4.8,1,1.4,1.7,1.8.7.5,1.5.8,2.4,1.1.9.2,1.8.3,2.8.3s1.4,0,2.2-.2,1.4-.4,2.1-.8c.6-.3,1.1-.8,1.5-1.4.4-.6.6-1.3.6-2.2,0-1.5-1-2.6-2.9-3.3s-4.6-1.5-8.1-2.2c-1.4-.3-2.8-.7-4.1-1.1-1.3-.4-2.5-1-3.6-1.7s-1.9-1.6-2.5-2.7c-.6-1.1-.9-2.4-.9-3.9,0-2.3.5-4.1,1.3-5.6.9-1.5,2.1-2.6,3.5-3.5,1.5-.9,3.1-1.4,4.9-1.8,1.8-.3,3.7-.5,5.6-.5s3.8.2,5.6.5c1.8.4,3.4,1,4.8,1.8s2.6,2,3.5,3.5c.9,1.4,1.5,3.2,1.7,5.4h-9.2c-.1-1.9-.9-3.1-2.1-3.8-1.3-.7-2.8-1-4.5-1h-1.8c-.6,0-1.2.2-1.8.5-.5.2-1,.6-1.3,1-.4.4-.5,1-.5,1.8s.3,1.6.9,2.1c.6.5,1.5,1,2.5,1.3s2.2.6,3.5.9c1.3.3,2.7.6,4,.9,1.4.3,2.8.7,4.1,1.2,1.3.4,2.5,1.1,3.6,1.8,1,.8,1.9,1.7,2.5,2.8s.9,2.5.9,4.1-.5,4.3-1.4,5.8c-.9,1.6-2.2,2.8-3.7,3.8-1.5.9-3.2,1.6-5.2,2-1.9.4-3.9.6-5.9.6s-4-.2-6-.6c-2-.4-3.7-1.1-5.2-2.1-1.5-.9-2.8-2.2-3.8-3.8s-1.5-3.5-1.6-5.9h9.2c0,1,.2,1.9.6,2.7h0l.1.4Z"/>
        <path d="M621.4,186.3v-4.9h-.2c-1.2,2.1-2.8,3.5-4.8,4.4s-4,1.4-6,1.4-4.7-.3-6.4-1-3-1.7-3.9-2.9c-.9-1.3-1.6-2.8-2-4.6s-.6-3.8-.6-6v-21.7h9.7v20c0,2.9.4,5.1,1.4,6.5.9,1.4,2.5,2.2,4.8,2.2s4.6-.8,5.7-2.4c1.2-1.6,1.8-4.2,1.8-7.8v-18.5h9.7v35.3h-9.2Z"/>
        <path d="M418.1,210.8v39.8h23.8v9h-34.5v-48.8h10.7Z"/>
        <path d="M447.6,235.1c.1-2.3.7-4.2,1.7-5.7s2.3-2.7,3.8-3.6c1.5-.9,3.3-1.6,5.2-1.9,1.9-.4,3.9-.6,5.8-.6s3.6.1,5.4.4c1.8.3,3.5.7,5,1.5,1.5.7,2.7,1.8,3.7,3.1.9,1.3,1.4,3,1.4,5.2v18.4c0,1.6,0,3.1.3,4.6.2,1.5.5,2.6.9,3.3h-9.8c-.2-.5-.3-1.1-.4-1.7s-.2-1.2-.2-1.8c-1.5,1.6-3.4,2.7-5.5,3.4-2.1.6-4.2.9-6.4.9s-3.3-.2-4.7-.6c-1.5-.4-2.7-1-3.8-1.9-1.1-.9-1.9-2-2.6-3.3-.6-1.3-.9-2.9-.9-4.7s.4-3.7,1.1-4.9c.7-1.3,1.6-2.3,2.7-3.1s2.4-1.3,3.8-1.8c1.4-.4,2.9-.7,4.3-.9,1.5-.2,2.9-.4,4.3-.5s2.7-.3,3.8-.6c1.1-.3,2-.7,2.6-1.2s.9-1.3.9-2.3-.2-1.9-.5-2.5-.8-1.1-1.4-1.4c-.6-.3-1.2-.6-2-.7s-1.6-.2-2.4-.2c-1.9,0-3.4.4-4.5,1.2s-1.7,2.2-1.9,4.1h-9.7v-.2ZM470,242.3c-.4.4-.9.6-1.5.9s-1.3.4-2,.5-1.4.3-2.2.3-1.6.2-2.3.3c-.7.1-1.4.3-2.2.5-.7.2-1.3.5-1.8.9s-.9.9-1.3,1.5c-.3.6-.5,1.3-.5,2.2s.2,1.6.5,2.2c.3.6.8,1.1,1.3,1.4.5.3,1.2.6,1.9.7.7.1,1.5.2,2.2.2,1.9,0,3.4-.3,4.4-.9,1-.6,1.8-1.4,2.3-2.3.5-.9.8-1.8.9-2.7s.2-1.6.2-2.2v-3.6h0l.1.1Z"/>
        <path d="M495.8,210.8v17.8h.1c1.2-1.8,2.8-3.1,4.8-4s4.1-1.3,6.3-1.3,3.5.4,5.3,1.1c1.7.7,3.3,1.8,4.7,3.4,1.4,1.5,2.5,3.4,3.4,5.8.9,2.3,1.3,5.1,1.3,8.4s-.4,6-1.3,8.4c-.9,2.3-2,4.3-3.4,5.8-1.4,1.5-3,2.6-4.7,3.4-1.7.7-3.5,1.1-5.3,1.1-2.6,0-4.9-.4-7-1.2-2.1-.8-3.6-2.2-4.6-4.2h-.1v4.5h-9.2v-48.8h9.7v-.2ZM511.5,237.7c-.3-1.4-.8-2.6-1.5-3.6s-1.5-1.9-2.6-2.5c-1-.6-2.3-.9-3.7-.9s-2.6.3-3.7.9c-1,.6-1.9,1.4-2.6,2.5-.7,1-1.2,2.2-1.5,3.6-.3,1.4-.5,2.8-.5,4.3s.2,2.9.5,4.2c.3,1.4.8,2.6,1.5,3.6s1.5,1.9,2.6,2.5c1,.6,2.3.9,3.7.9s2.7-.3,3.7-.9c1-.6,1.9-1.4,2.6-2.5.7-1,1.2-2.2,1.5-3.6.3-1.4.5-2.8.5-4.2s-.2-2.9-.5-4.3Z"/>
      </g>
    </g>
  </g>
</svg>