<?xml version="1.0" encoding="UTF-8"?><svg id="main" xmlns="http://www.w3.org/2000/svg" viewBox="0 0 28.35 28.35"><defs><style>.cls-1{fill:#fff;}</style></defs><g id="lay"><rect class="cls-1" width="28.35" height="28.35"/><path d="M2.74,5.94v3.2h6.4V2.74H2.74v3.2ZM8.23,5.94v2.29H3.66V3.66h4.57v2.29Z"/><path d="M4.57,5.94v1.37h2.74v-2.74h-2.74v1.37Z"/><path d="M11.89,3.2v.46h-1.83v1.83h.91v.91h-.91v3.66h-1.83v.91h-.91v.91h-.91v-1.83h-.91v1.83h-.91v-1.83h-1.83v1.83h1.83v.91h.91v.91h.91v.91h-.91v.91h-.91v.91h-.91v-.91h-.91v.91h.91v.91h-.91v.91h1.83v-1.83h1.83v.91h-.91v.91h3.66v-.91h-.91v-.91h2.74v-1.83h-.91v-.91h1.83v.91h.91v.91h-.91v1.83h-.91v.91h-.91v1.83h.91v1.83h-.91v.91h1.83v-.91h.91v.91h.91v-.91h2.74v-1.83h.91v2.74h.91v.91h-.91v.91h-1.83v-.91h-3.66v.91h-.91v-.91h-.91v1.83h1.83v-.91h.91v.91h5.49v-.91h.91v.91h1.83v-.91h-1.83v-1.83h-.91v-.91h1.83v1.83h1.83v.91h.91v-.91h.91v-1.83h.91v-1.83h.91v-1.83h-.91v.91h-.91v.91h-.91v-1.83h.91v-.91h.91v-.91h.91v-2.74h-1.83v.91h-.91v-.91h-.91v-1.83h-1.83v-.91h1.83v-.91h-2.74v.91h-.91v-4.57h-.91v-.91h.91v-2.74h-3.66v1.83h1.83v.91h-.91v.91h-.91v-.91h-.91v3.66h-.91v-2.74h-.91v-.91h-.91v-.91h1.83v-1.83h-.91v.46ZM16.46,7.32v.91h.91v.91h-.91v.91h.91v1.83h.91v.91h-1.83v1.83h1.83v.91h1.83v.91h.91v.91h-.91v-.91h-4.57v-3.66h-.91v-1.83h1.83v-.91h-2.74v-.91h.91v-.91h.91v-1.83h.91v.91ZM11.89,8.69v1.37h.91v2.74h-1.83v-.91h-.91v-1.83h.91v-2.74h.91v1.37ZM9.14,11.43v.46h-.91v-.91h.91v.46ZM6.4,12.34v.46h-.91v-.91h.91v.46ZM9.14,13.26v.46h-.91v-.91h.91v.46ZM21.03,13.26v.46h.91v1.83h.91v.91h.91v-1.83h.91v1.83h-.91v.91h-1.83v-1.83h-.91v-.91h-.91v-.91h-.91v-.91h1.83v.46ZM14.63,15.54v1.83h2.74v1.83h-1.83v1.83h-.91v-3.66h-.91v1.83h-.91v.91h.91v1.83h-.91v-1.83h-.91v-2.74h1.83v-3.66h.91v1.83ZM7.32,15.54v.91h-.91v-1.83h.91v.91ZM10.06,15.09v.46h-1.83v-.91h1.83v.46ZM21.03,19.66v1.37h-2.74v-2.74h2.74v1.37ZM23.77,21.49v.46h-.91v-.91h.91v.46ZM22.86,23.32v.46h-.91v-.91h.91v.46Z"/><path d="M15.54,8.69v.46h.91v-.91h-.91v.46Z"/><path d="M10.97,11.43v.46h.91v-.91h-.91v.46Z"/><path d="M19.2,19.66v.46h.91v-.91h-.91v.46Z"/><path d="M19.2,5.94v3.2h6.4V2.74h-6.4v3.2ZM24.69,5.94v2.29h-4.57V3.66h4.57v2.29Z"/><path d="M21.03,5.94v1.37h2.74v-2.74h-2.74v1.37Z"/><path d="M22.86,10.52v.46h1.83v.91h-.91v.91h1.83v-1.83h-.91v-.91h-1.83v.46Z"/><path d="M2.74,14.17v.46h1.83v-.91h-1.83v.46Z"/><path d="M2.74,22.4v3.2h6.4v-6.4H2.74v3.2ZM8.23,22.4v2.29H3.66v-4.57h4.57v2.29Z"/><path d="M4.57,22.4v1.37h2.74v-2.74h-2.74v1.37Z"/><path d="M24.69,23.32v.46h.91v-.91h-.91v.46Z"/><path d="M23.77,25.15v.46h1.83v-.91h-1.83v.46Z"/></g></svg>